<?xml version="1.0" encoding="UTF-8"?><svg id="Layer_1" xmlns="http://www.w3.org/2000/svg" xmlns:xlink="http://www.w3.org/1999/xlink" viewBox="0 0 170.31 88"><defs><style>.cls-1{fill:#df1de5;}.cls-1,.cls-2,.cls-3{stroke-width:0px;}.cls-2,.cls-4{fill:none;}.cls-3{fill:#d0d1e7;}.cls-5{clip-path:url(#clippath);}.cls-4{isolation:isolate;opacity:.5;stroke:#d0d1e7;stroke-width:.24px;}</style><clipPath id="clippath"><rect class="cls-2" width="166" height="88"/></clipPath></defs><g class="cls-5"><path class="cls-1" d="M57.93,83.99c-.25.41-.51.81-.81,1.18-.71.86-1.49,1.52-2.36,1.98-1.02.57-2.11.85-3.26.85-.77,0-1.56-.13-2.39-.38s-1.63-.66-2.39-1.23l-19.72-13.48c-1.21-.82-2.33-1.58-3.35-2.28-.96-.69-1.88-1.3-2.78-1.8-.83-.57-1.69-1.01-2.58-1.33-.83-.32-1.75-.54-2.78-.66H0v-1.23c1.85-.13,3.13-.57,3.83-1.33.77-.82,1.15-2.15,1.15-3.99V6.95c0-1.84-.38-3.13-1.15-3.89-.7-.82-1.98-1.3-3.83-1.43V.4h15.51v65.01h14.8c2.58,0,5.11.78,7.23,2.23l16.45,11.25c1.47.95,2.71,1.42,3.73,1.42.83,0,1.53-.22,2.11-.66.64-.44,1.18-1.01,1.63-1.71l.29-.38-3.82,6.43Z"/><path class="cls-1" d="M109.6,51.07c0,1.23-.96,2.18-2.2,2.18h-5.36c-1.24,0-2.2.95-2.2,2.18v5.13c0,1.23-.96,2.18-2.2,2.18h-5.36c-1.24,0-2.2-.95-2.2-2.18v-5.13c0-1.23-.96-2.18-2.2-2.18h-5.36c-1.24,0-2.2-.95-2.2-2.18v-5.13c0-1.23-.96-2.18-2.2-2.18h-5.36c-1.24,0-2.2-.95-2.2-2.18V15.29h9.76v26.29c0,1.23.96,2.18,2.2,2.18h5.36c1.24,0,2.2.95,2.2,2.18v5.13c0,1.23.96,2.18,2.2,2.18h5.36c1.24,0,2.2-.95,2.2-2.18v-5.13c0-1.23.96-2.18,2.2-2.18h5.36c1.24,0,2.2-.95,2.2-2.18V15.29h9.76v26.29c0,1.23-.96,2.18-2.2,2.18h-5.36c-1.24,0-2.2.95-2.2,2.18v5.13h0Z"/><path class="cls-1" d="M126.21,20.5c-.63.42-1.05.62-1.26.62-.14,0-.21-.14-.21-.42s.21-.56.63-.83c4.48-3.05,8.33-4.58,11.55-4.58,4.76,0,7.14,2.15,7.14,6.45,0,1.53-1.19,4.37-3.57,8.53-2.38,4.09-4.76,8.39-7.14,12.9-2.38,4.51-3.57,8.05-3.57,10.62,0,3.61,2.45,5.41,7.35,5.41,2.38,0,5.49-1.11,9.34-3.33,3.92-2.22,7.35-4.55,10.29-6.97,2.94-2.43,5.53-4.86,7.77-7.29,2.24-2.43,3.6-4.06,4.1-4.89.56-.83.98-1.25,1.26-1.25s.42.1.42.31-.07.45-.21.73c-3.43,4.58-7.21,8.67-11.34,12.28-4.48,4.23-9.38,7.63-14.7,10.2-5.32,2.5-9.56,3.75-12.71,3.75s-5.6-.69-7.35-2.08c-1.75-1.39-2.62-3.47-2.62-6.24s1.29-6.52,3.88-11.24c2.59-4.72,5.18-9.09,7.77-13.11,2.59-4.09,3.88-6.8,3.88-8.12,0-1.39-.32-2.46-.95-3.23-.56-.76-1.29-1.14-2.2-1.14-2.1,0-4.62.97-7.56,2.91Z"/><path class="cls-1" d="M146.76,4.35c0,2.4-1.96,4.35-4.39,4.35s-4.39-1.95-4.39-4.35,1.96-4.35,4.39-4.35,4.39,1.95,4.39,4.35Z"/><path class="cls-1" d="M39.57,64.14c-4.93,0-8.89-1.25-11.88-3.76-2.99-2.51-4.49-5.92-4.49-10.25,0-3.03.75-5.44,2.25-7.24,1.5-1.79,3.28-3.09,5.33-3.9,2.06-.8,4.49-1.49,7.3-2.04.06-.06.11-.09.14-.09h.14l6.64-1.39c.25-.06.47-.11.65-.14.19-.03.41-.08.65-.14,2-.37,3.59-.79,4.77-1.25,1.18-.46,2.14-1.11,2.85-1.95.72-.84,1.07-1.93,1.07-3.29,0-2.41-.84-4.19-2.53-5.33-1.68-1.14-3.87-1.72-6.55-1.72s-4.74.54-6.55,1.62c-1.81,1.08-2.84,2.86-3.09,5.33h-10.95c.25-4.58,2.29-8.01,6.13-10.3,3.84-2.29,8.72-3.43,14.64-3.43s10.1,1.08,13.29,3.25c2.43,1.67,3.99,3.65,4.68,5.94.69,2.29,1.03,5.07,1.03,8.35v22.45c0,1.86.2,3.8.77,6.07.29.43.43.71.57.98.14.27.29.58.43.88l-11.6-.05v-6.59c-1.62,2.35-3.66,4.27-6.13,5.75-2.46,1.49-5.66,2.23-9.59,2.23h0ZM43.03,56.9c2.37,0,4.44-.46,6.22-1.39s3.16-2.26,4.16-3.99c1-1.73,1.5-3.74,1.5-6.03v-6.49c-.44.37-1.33.79-2.67,1.25-1.34.46-2.76.88-4.26,1.25-.31.06-.61.12-.89.18-.28.06-.55.12-.79.18l-1.68.46h-.23s-.08.03-.14.09c-2.31.56-4.12,1.07-5.43,1.53-1.31.46-2.39,1.14-3.23,2.04-.84.9-1.26,2.12-1.26,3.66,0,2.29.78,4.07,2.34,5.33,1.56,1.27,3.68,1.9,6.36,1.9h0Z"/><path class="cls-3" d="M69.86,76.15v-.51c.33-.3.61-.56.84-.78.23-.23.4-.42.53-.57.12-.15.22-.3.28-.43.06-.14.09-.27.09-.38,0-.16-.05-.29-.15-.39-.09-.1-.24-.16-.43-.16s-.32.05-.42.16c-.09.1-.14.26-.14.46h-.55c0-.21.05-.4.14-.55.09-.16.22-.28.38-.36.17-.09.37-.13.6-.13.34,0,.6.09.79.27.19.18.28.41.28.7,0,.22-.05.42-.16.61-.1.19-.26.4-.46.62-.13.15-.29.31-.46.48-.17.17-.36.35-.57.56h1.65v.41h-2.23ZM70.96,77.29c-.4,0-.78-.08-1.14-.23-.36-.15-.67-.36-.94-.63-.27-.27-.47-.58-.63-.94-.15-.36-.23-.74-.23-1.14s.08-.79.23-1.14c.15-.36.36-.67.63-.93.27-.27.58-.48.94-.63.36-.15.74-.23,1.14-.23s.79.08,1.14.23c.36.15.67.36.93.63.27.27.48.58.63.93.15.35.23.73.23,1.14s-.08.78-.23,1.14c-.15.36-.36.67-.63.94s-.58.47-.93.63c-.35.15-.73.23-1.14.23ZM70.96,76.89c.35,0,.68-.06.98-.19.31-.13.58-.32.81-.55.23-.23.41-.5.54-.8.13-.31.2-.64.2-.99s-.07-.68-.2-.98c-.13-.31-.31-.58-.54-.81-.23-.23-.5-.41-.81-.54-.3-.13-.63-.2-.98-.2s-.68.07-.99.2c-.3.13-.57.31-.8.54-.23.23-.41.5-.55.81-.13.3-.19.63-.19.98s.06.68.19.99c.13.3.32.57.55.8.23.23.5.41.8.55.31.13.64.19.99.19Z"/><path class="cls-3" d="M77.56,77.29l.11-2.32-.77,2.19-.45-.18,1-2.11-1.55,1.74-.35-.35,1.74-1.55-2.11,1-.18-.45,2.19-.77-2.32.11v-.48l2.32.13-2.19-.79.18-.43,2.11,1-1.74-1.56.35-.34,1.55,1.72-1-2.09.45-.19.77,2.21-.11-2.33h.48l-.13,2.32.79-2.19.43.19-1,2.09,1.56-1.72.34.34-1.72,1.56,2.09-1,.19.43-2.21.79,2.33-.13v.48l-2.33-.11,2.21.77-.19.45-2.09-1,1.72,1.55-.34.35-1.56-1.74,1,2.11-.43.18-.79-2.19.13,2.32h-.48Z"/><path class="cls-3" d="M83.54,76.15v-.51c.33-.3.61-.56.84-.78.23-.23.4-.42.53-.57.12-.15.22-.3.28-.43.06-.14.09-.27.09-.38,0-.16-.05-.29-.15-.39-.09-.1-.24-.16-.43-.16s-.32.05-.42.16c-.09.1-.14.26-.14.46h-.55c0-.21.05-.4.14-.55.09-.16.22-.28.38-.36.17-.09.37-.13.6-.13.34,0,.6.09.79.27.19.18.28.41.28.7,0,.22-.05.42-.16.61-.1.19-.26.4-.46.62-.13.15-.29.31-.46.48-.17.17-.36.35-.57.56h1.65v.41h-2.23ZM84.64,77.29c-.4,0-.78-.08-1.14-.23-.36-.15-.67-.36-.94-.63-.27-.27-.47-.58-.63-.94-.15-.36-.23-.74-.23-1.14s.08-.79.23-1.14c.15-.36.36-.67.63-.93.27-.27.58-.48.94-.63.36-.15.74-.23,1.14-.23s.79.08,1.14.23c.36.15.67.36.93.63.27.27.48.58.63.93.15.35.23.73.23,1.14s-.08.78-.23,1.14c-.15.36-.36.67-.63.94-.27.27-.58.47-.93.63-.35.15-.73.23-1.14.23ZM84.64,76.89c.35,0,.68-.06.98-.19.31-.13.58-.32.81-.55s.41-.5.54-.8c.13-.31.2-.64.2-.99s-.07-.68-.2-.98c-.13-.31-.31-.58-.54-.81s-.5-.41-.81-.54c-.3-.13-.63-.2-.98-.2s-.68.07-.99.2c-.3.13-.57.31-.8.54-.23.23-.41.5-.55.81-.13.3-.19.63-.19.98s.06.68.19.99c.13.3.32.57.55.8.23.23.5.41.8.55.31.13.64.19.99.19Z"/><path class="cls-3" d="M91.7,76.15v-.78h-1.62v-.63l1.54-2.19h.57v2.39h.48v.43h-.48v.78h-.48ZM90.46,74.94h1.24v-1.76c0-.06,0-.12.01-.16h-.01c-.04.08-.08.16-.13.24-.05.08-.1.16-.16.24l-.95,1.44ZM91.47,77.29c-.4,0-.78-.08-1.14-.23-.36-.15-.67-.36-.94-.63-.27-.27-.47-.58-.63-.94-.15-.36-.23-.74-.23-1.14s.08-.79.23-1.14c.15-.36.36-.67.63-.93.27-.27.58-.48.94-.63.36-.15.74-.23,1.14-.23s.79.08,1.14.23c.36.15.67.36.93.63.27.27.48.58.63.93.15.35.23.73.23,1.14s-.08.78-.23,1.14c-.15.36-.36.67-.63.94s-.58.47-.93.63c-.35.15-.73.23-1.14.23ZM91.47,76.89c.35,0,.68-.06.98-.19.31-.13.58-.32.81-.55.23-.23.41-.5.54-.8.13-.31.2-.64.2-.99s-.07-.68-.2-.98c-.13-.31-.31-.58-.54-.81-.23-.23-.5-.41-.81-.54-.3-.13-.63-.2-.98-.2s-.68.07-.99.2c-.3.13-.57.31-.8.54-.23.23-.42.5-.55.81-.13.3-.19.63-.19.98s.06.68.19.99c.13.3.32.57.55.8.23.23.5.41.8.55.31.13.64.19.99.19Z"/><line class="cls-4" x1="98.31" y1="74.24" x2="110.87" y2="74.24"/><path class="cls-3" d="M115.21,75.86v-3.59h1.46c.81,0,1.21.34,1.21,1.03,0,.75-.42,1.13-1.26,1.13h-.93v1.43h-.48ZM116.58,72.68h-.88v1.35h.88c.57,0,.82-.24.82-.71,0-.45-.26-.64-.82-.64ZM118.28,74.07c0-.61.15-1.08.47-1.41.31-.33.73-.49,1.25-.49.33,0,.64.07.94.25.45.26.76.78.77,1.65,0,.26-.03.49-.09.7-.12.41-.28.65-.52.84-.24.18-.43.27-.67.31-.24.06-.32.05-.43.05-.06,0-.12,0-.18,0-.11,0-.39-.06-.6-.15-.21-.1-.48-.29-.65-.55-.16-.26-.29-.69-.29-1.2ZM118.8,74.07c0,.27.03.49.13.77.14.39.46.72,1.07.72.05,0,.1,0,.14,0,.1,0,.29-.05.43-.13.31-.16.63-.54.63-1.36,0-.45-.1-.81-.3-1.08-.2-.28-.5-.42-.9-.42-.42,0-.74.19-.9.42-.08.11-.14.24-.19.39-.1.3-.11.49-.11.69ZM122.86,75.86h-.48v-3.59h1.59c.8,0,1.19.32,1.19.96,0,.21-.06.41-.17.57-.11.17-.26.27-.45.31v.02c.23.09.37.2.44.37.06.17.08.27.08.5v.19c0,.16.01.18.01.29,0,.1.02.13.04.21.02.07.05.11.09.17h-.51c-.06-.08-.1-.16-.11-.26-.02-.09-.02-.26-.02-.5,0-.23-.01-.35-.1-.51-.08-.17-.27-.25-.58-.25h-1.03v1.52ZM123.86,72.68h-1v1.26h1.08c.24,0,.71-.09.71-.65,0-.41-.26-.61-.78-.61ZM126.67,75.86v-3.18h-1.17v-.41h2.82v.41h-1.16v3.18h-.48ZM129.3,72.68v1.17h1.69v.41h-1.69v1.61h-.48v-3.59h2.41v.41h-1.93ZM131.52,74.07c0-.61.15-1.08.47-1.41.31-.33.73-.49,1.25-.49.33,0,.64.07.94.25.45.26.76.78.77,1.65,0,.26-.03.49-.09.7-.12.41-.28.65-.52.84-.24.18-.43.27-.67.31-.24.06-.32.05-.43.05-.06,0-.12,0-.17,0-.11,0-.39-.06-.6-.15-.21-.1-.48-.29-.65-.55-.16-.26-.29-.69-.29-1.2ZM132.04,74.07c0,.27.03.49.13.77.14.39.46.72,1.07.72.05,0,.1,0,.14,0,.1,0,.29-.05.43-.13.31-.16.62-.54.62-1.36,0-.45-.1-.81-.3-1.08-.2-.28-.5-.42-.9-.42-.42,0-.74.19-.9.42-.08.11-.14.24-.19.39-.1.3-.11.49-.11.69ZM136.1,75.46h1.83v.41h-2.31v-3.59h.48v3.18ZM138.33,75.86v-3.59h.48v3.59h-.48ZM139.48,74.07c0-.61.15-1.08.47-1.41.31-.33.73-.49,1.25-.49.33,0,.64.07.94.25.45.26.76.78.77,1.65,0,.26-.03.49-.09.7-.12.41-.28.65-.52.84-.24.18-.43.27-.67.31-.24.06-.32.05-.43.05-.06,0-.12,0-.18,0-.11,0-.4-.06-.6-.15-.21-.1-.48-.29-.65-.55-.16-.26-.29-.69-.29-1.2ZM139.99,74.07c0,.27.02.49.13.77.14.39.46.72,1.07.72.05,0,.1,0,.14,0,.1,0,.29-.05.43-.13.31-.16.63-.54.63-1.36,0-.45-.1-.81-.3-1.08-.2-.28-.5-.42-.9-.42-.42,0-.74.19-.9.42-.08.11-.14.24-.19.39-.1.3-.11.49-.11.69Z"/></g></svg>