<svg width="1092" height="551" viewBox="0 0 1092 551" fill="none" xmlns="http://www.w3.org/2000/svg">
<path d="M1082.32 220.4H883.276C877.747 220.4 873.6 216.268 873.6 210.757V119.842C873.6 114.332 869.453 110.2 863.924 110.2H664.876C659.347 110.2 655.2 106.067 655.2 100.558V9.6425C655.2 4.1325 651.053 0 645.524 0H446.476C440.947 0 436.8 4.1325 436.8 9.6425V100.558C436.8 106.067 432.653 110.2 427.124 110.2H228.076C222.547 110.2 218.4 114.332 218.4 119.842V210.757C218.4 216.268 214.253 220.4 208.724 220.4H9.67595C4.14683 220.4 0 224.533 0 230.043V320.957C0 326.467 4.14683 330.6 9.67595 330.6H208.724C214.253 330.6 218.4 334.733 218.4 340.242V431.157C218.4 436.667 222.547 440.8 228.076 440.8H427.124C432.653 440.8 436.8 444.932 436.8 450.443V541.357C436.8 546.867 440.947 551 446.476 551H645.524C651.053 551 655.2 546.867 655.2 541.357V450.443C655.2 444.932 659.347 440.8 664.876 440.8H863.924C869.453 440.8 873.6 436.667 873.6 431.157V340.242C873.6 334.733 877.747 330.6 883.276 330.6H1082.32C1087.85 330.6 1092 326.467 1092 320.957V230.043C1092 224.533 1087.85 220.4 1082.32 220.4ZM873.6 318.202C873.6 325.09 868.071 330.6 861.159 330.6H667.641C660.729 330.6 655.2 336.11 655.2 342.997V429.091C655.2 435.979 649.671 441.489 642.759 441.489H449.24C442.329 441.489 436.8 435.979 436.8 429.091V342.997C436.8 336.11 431.271 330.6 424.359 330.6H230.841C223.929 330.6 218.4 325.09 218.4 318.202V232.797C218.4 225.91 223.929 220.4 230.841 220.4H425.051C431.962 220.4 437.491 214.89 437.491 208.003V122.597C437.491 115.71 443.02 110.2 449.932 110.2H642.068C648.98 110.2 654.509 115.71 654.509 122.597V208.003C654.509 214.89 660.038 220.4 666.949 220.4H861.159C868.071 220.4 873.6 225.91 873.6 232.797V318.202Z" fill="#DF1DE5"/>
</svg>
