<svg width="1920" height="1080" viewBox="0 0 1920 1080" fill="none" xmlns="http://www.w3.org/2000/svg">
<g clip-path="url(#clip0_2208_664)">
<rect width="1920" height="1080" fill="transparent"/>
<path fill-rule="evenodd" clip-rule="evenodd" d="M1920 0H0V1080H1920V0ZM1297.28 484.4H1496.32C1501.85 484.4 1506 488.533 1506 494.043V584.958C1506 590.467 1501.85 594.6 1496.32 594.6H1297.28C1291.75 594.6 1287.6 598.732 1287.6 604.242V695.157C1287.6 700.667 1283.45 704.8 1277.92 704.8H1078.88C1073.35 704.8 1069.2 708.932 1069.2 714.443V805.357C1069.2 810.867 1065.05 815 1059.52 815H860.476C854.947 815 850.8 810.867 850.8 805.357V714.443C850.8 708.932 846.653 704.8 841.124 704.8H642.076C636.547 704.8 632.4 700.667 632.4 695.157V604.242C632.4 598.732 628.253 594.6 622.724 594.6H423.676C418.147 594.6 414 590.467 414 584.958V494.043C414 488.533 418.147 484.4 423.676 484.4H622.724C628.253 484.4 632.4 480.267 632.4 474.758V383.842C632.4 378.332 636.547 374.2 642.076 374.2H841.124C846.653 374.2 850.8 370.068 850.8 364.557V273.642C850.8 268.133 854.947 264 860.476 264H1059.52C1065.05 264 1069.2 268.133 1069.2 273.642V364.557C1069.2 370.068 1073.35 374.2 1078.88 374.2H1277.92C1283.45 374.2 1287.6 378.332 1287.6 383.842V474.758C1287.6 480.267 1291.75 484.4 1297.28 484.4Z" fill="transparent"/>
<path d="M1496.32 484.4H1297.28C1291.75 484.4 1287.6 480.268 1287.6 474.757V383.842C1287.6 378.332 1283.45 374.2 1277.92 374.2H1078.88C1073.35 374.2 1069.2 370.067 1069.2 364.558V273.642C1069.2 268.132 1065.05 264 1059.52 264H860.476C854.947 264 850.8 268.132 850.8 273.642V364.558C850.8 370.067 846.653 374.2 841.124 374.2H642.076C636.547 374.2 632.4 378.332 632.4 383.842V474.757C632.4 480.268 628.253 484.4 622.724 484.4H423.676C418.147 484.4 414 488.533 414 494.043V584.957C414 590.467 418.147 594.6 423.676 594.6H622.724C628.253 594.6 632.4 598.733 632.4 604.242V695.157C632.4 700.667 636.547 704.8 642.076 704.8H841.124C846.653 704.8 850.8 708.932 850.8 714.443V805.357C850.8 810.867 854.947 815 860.476 815H1059.52C1065.05 815 1069.2 810.867 1069.2 805.357V714.443C1069.2 708.932 1073.35 704.8 1078.88 704.8H1277.92C1283.45 704.8 1287.6 700.667 1287.6 695.157V604.242C1287.6 598.733 1291.75 594.6 1297.28 594.6H1496.32C1501.85 594.6 1506 590.467 1506 584.957V494.043C1506 488.533 1501.85 484.4 1496.32 484.4ZM1287.6 582.202C1287.6 589.09 1282.07 594.6 1275.16 594.6H1081.64C1074.73 594.6 1069.2 600.11 1069.2 606.997V693.091C1069.2 699.979 1063.67 705.489 1056.76 705.489H863.24C856.329 705.489 850.8 699.979 850.8 693.091V606.997C850.8 600.11 845.271 594.6 838.359 594.6H644.841C637.929 594.6 632.4 589.09 632.4 582.202V496.797C632.4 489.91 637.929 484.4 644.841 484.4H839.051C845.962 484.4 851.491 478.89 851.491 472.003V386.597C851.491 379.71 857.02 374.2 863.932 374.2H1056.07C1062.98 374.2 1068.51 379.71 1068.51 386.597V472.003C1068.51 478.89 1074.04 484.4 1080.95 484.4H1275.16C1282.07 484.4 1287.6 489.91 1287.6 496.797V582.202Z" fill="#DF1DE5"/>
<path d="M1287.6 582.003C1287.6 588.89 1282.07 594.4 1275.16 594.4H1081.64C1074.73 594.4 1069.2 599.91 1069.2 606.798V692.891C1069.2 699.779 1063.67 705.289 1056.76 705.289H863.24C856.329 705.289 850.8 699.779 850.8 692.891V606.798C850.8 599.91 845.271 594.4 838.36 594.4H644.841C637.929 594.4 632.4 588.89 632.4 582.003V496.597C632.4 489.71 637.929 484.2 644.841 484.2H839.051C845.962 484.2 851.491 478.69 851.491 471.803V386.397C851.491 379.51 857.02 374 863.932 374H1056.07C1062.98 374 1068.51 379.51 1068.51 386.397V471.803C1068.51 478.69 1074.04 484.2 1080.95 484.2H1275.16C1282.07 484.2 1287.6 489.71 1287.6 496.597V582.003Z" fill="transparent"/>
</g>
<defs>
<clipPath id="clip0_2208_664">
<rect width="1920" height="1080" fill="white"/>
</clipPath>
</defs>
</svg>
