<?xml version="1.0" encoding="UTF-8"?><svg id="Layer_1" xmlns="http://www.w3.org/2000/svg" xmlns:xlink="http://www.w3.org/1999/xlink" viewBox="0 0 545 282"><defs><style>.cls-1{fill:none;}.cls-1,.cls-2{stroke-width:0px;}.cls-2{fill:#0f0f1a;}.cls-3{clip-path:url(#clippath);}</style><clipPath id="clippath"><rect class="cls-1" width="545" height="282"/></clipPath></defs><g class="cls-3"><path class="cls-2" d="M185.37,268.84c-.79,1.32-1.63,2.6-2.6,3.79-2.26,2.76-4.76,4.86-7.55,6.32-3.27,1.82-6.74,2.73-10.42,2.73-2.45,0-5-.41-7.66-1.21-2.65-.81-5.2-2.12-7.65-3.95l-63.1-43.13c-3.88-2.63-7.45-5.06-10.72-7.29-3.06-2.22-6.03-4.14-8.89-5.77-2.65-1.82-5.41-3.24-8.27-4.25-2.65-1.02-5.62-1.72-8.88-2.12H0v-3.94c5.93-.41,10.01-1.82,12.26-4.25,2.45-2.63,3.68-6.88,3.68-12.76V22.32c0-5.88-1.23-10.02-3.68-12.45C10.01,7.23,5.93,5.72,0,5.31V1.36h49.63v208.03h47.34c8.27,0,16.34,2.49,23.15,7.15l52.65,35.98c4.7,3.04,8.68,4.55,11.95,4.55,2.65,0,4.9-.71,6.74-2.12,2.04-1.41,3.78-3.24,5.2-5.47l.92-1.21-12.22,20.57Z"/><path class="cls-2" d="M350.71,163.52c0,3.94-3.06,6.98-7.04,6.98h-17.16c-3.98,0-7.04,3.04-7.04,6.98v16.4c0,3.94-3.06,6.98-7.04,6.98h-17.15c-3.98,0-7.04-3.04-7.04-6.98v-16.4c0-3.94-3.06-6.98-7.04-6.98h-17.15c-3.98,0-7.04-3.04-7.04-6.98v-16.4c0-3.95-3.06-6.98-7.04-6.98h-17.15c-3.98,0-7.04-3.04-7.04-6.98V49.02h31.24v84.13c0,3.94,3.06,6.98,7.04,6.98h17.15c3.98,0,7.04,3.04,7.04,6.98v16.4c0,3.94,3.06,6.98,7.04,6.98h17.15c3.98,0,7.04-3.04,7.04-6.98v-16.4c0-3.95,3.06-6.98,7.04-6.98h17.16c3.98,0,7.04-3.04,7.04-6.98V49.02h31.24v84.13c0,3.94-3.06,6.98-7.04,6.98h-17.16c-3.98,0-7.04,3.04-7.04,6.98v16.4h0Z"/><path class="cls-2" d="M403.88,65.67c-2.01,1.33-3.36,2-4.03,2-.45,0-.67-.44-.67-1.33s.67-1.78,2.01-2.67c14.33-9.77,26.65-14.65,36.96-14.65,15.23,0,22.85,6.88,22.85,20.65,0,4.89-3.8,13.98-11.42,27.31-7.62,13.09-15.23,26.86-22.85,41.29-7.62,14.43-11.42,25.75-11.42,33.97,0,11.54,7.84,17.32,23.52,17.32,7.62,0,17.58-3.56,29.9-10.65,12.54-7.1,23.52-14.55,32.93-22.31,9.41-7.77,17.7-15.54,24.86-23.32,7.17-7.77,11.53-12.99,13.11-15.65,1.79-2.67,3.14-4,4.03-4s1.34.34,1.34,1-.22,1.44-.67,2.33c-10.98,14.65-23.07,27.75-36.28,39.29-14.33,13.54-30.01,24.42-47.04,32.64-17.02,7.99-30.58,11.99-40.66,11.99s-17.92-2.22-23.52-6.66c-5.6-4.44-8.4-11.1-8.4-19.98s4.14-20.87,12.43-35.97c8.29-15.1,16.57-29.08,24.86-41.96,8.29-13.1,12.43-21.76,12.43-25.97,0-4.44-1.01-7.88-3.03-10.32-1.79-2.44-4.14-3.66-7.05-3.66-6.72,0-14.78,3.11-24.19,9.32Z"/><path class="cls-2" d="M469.64,14c0,7.69-6.28,13.92-14.04,13.92s-14.04-6.23-14.04-13.92S447.84.08,455.6.08s14.04,6.23,14.04,13.92Z"/><path class="cls-2" d="M126.62,205.32c-15.77,0-28.45-4.01-38.02-12.03-9.58-8.02-14.37-18.94-14.37-32.8,0-9.69,2.4-17.41,7.19-23.15,4.79-5.74,10.48-9.89,17.07-12.47,6.59-2.57,14.37-4.75,23.35-6.53.19-.19.35-.3.45-.3h.45l21.26-4.45c.8-.19,1.5-.35,2.09-.44.6-.1,1.3-.24,2.1-.44,6.38-1.19,11.48-2.52,15.26-4.01,3.79-1.49,6.83-3.56,9.13-6.23,2.3-2.68,3.44-6.19,3.44-10.54,0-7.72-2.7-13.4-8.09-17.07-5.39-3.66-12.38-5.5-20.96-5.5s-15.17,1.73-20.96,5.2c-5.79,3.46-9.08,9.16-9.88,17.07h-35.03c.8-14.65,7.34-25.63,19.61-32.95,12.28-7.32,27.89-10.98,46.86-10.98s32.33,3.46,42.51,10.39c7.78,5.34,12.77,11.68,14.97,19,2.19,7.33,3.29,16.23,3.29,26.72v71.83c0,5.94.65,12.16,2.48,19.42.91,1.36,1.37,2.27,1.83,3.14.46.87.91,1.85,1.37,2.82l-37.13-.15v-21.08c-5.19,7.53-11.73,13.66-19.61,18.4-7.88,4.75-18.11,7.13-30.69,7.13h0ZM137.7,182.17c7.58,0,14.22-1.49,19.91-4.45,5.69-2.97,10.12-7.22,13.33-12.77,3.19-5.54,4.79-11.97,4.79-19.3v-20.78c-1.4,1.19-4.24,2.52-8.53,4.01-4.3,1.49-8.84,2.82-13.62,4.01-1,.2-1.95.4-2.84.59-.9.2-1.75.4-2.54.59l-5.39,1.49h-.75c-.1,0-.26.1-.45.3-7.39,1.78-13.17,3.41-17.36,4.9s-7.64,3.66-10.33,6.53c-2.7,2.87-4.04,6.78-4.04,11.73,0,7.33,2.5,13.01,7.48,17.07,4.99,4.06,11.77,6.08,20.36,6.08h-.02Z"/></g></svg>